<mxfile host="app.diagrams.net" modified="2024-05-07T00:17:13.839Z" agent="Mozilla/5.0 (X11; Linux x86_64) AppleWebKit/537.36 (KHTML, like Gecko) Chrome/123.0.0.0 Safari/537.36" etag="dDYI7BIuyyPgYkOsq625" version="24.3.1" type="device">
  <diagram name="Page-1" id="zvrVPmPwxedA6N5LaSdl">
    <mxGraphModel dx="2284" dy="759" grid="1" gridSize="10" guides="1" tooltips="1" connect="1" arrows="1" fold="1" page="1" pageScale="1" pageWidth="850" pageHeight="1100" math="0" shadow="0">
      <root>
        <mxCell id="0" />
        <mxCell id="1" parent="0" />
        <mxCell id="DdxbloYHh6gc6Rri6B6Y-1" value="MONGODB" style="swimlane;fillColor=#d5e8d4;strokeColor=#82b366;" vertex="1" parent="1">
          <mxGeometry x="-70" y="40" width="1080" height="630" as="geometry" />
        </mxCell>
        <mxCell id="DdxbloYHh6gc6Rri6B6Y-2" value="Quiz Collection" style="swimlane;fillColor=#d5e8d4;strokeColor=#82b366;" vertex="1" parent="DdxbloYHh6gc6Rri6B6Y-1">
          <mxGeometry x="650" y="140" width="410" height="230" as="geometry" />
        </mxCell>
        <mxCell id="DdxbloYHh6gc6Rri6B6Y-3" value="Response" style="swimlane;fontStyle=0;childLayout=stackLayout;horizontal=1;startSize=30;horizontalStack=0;resizeParent=1;resizeParentMax=0;resizeLast=0;collapsible=1;marginBottom=0;whiteSpace=wrap;html=1;" vertex="1" parent="DdxbloYHh6gc6Rri6B6Y-2">
          <mxGeometry x="250" y="100" width="140" height="120" as="geometry" />
        </mxCell>
        <mxCell id="DdxbloYHh6gc6Rri6B6Y-4" value="id" style="text;strokeColor=none;fillColor=none;align=left;verticalAlign=middle;spacingLeft=4;spacingRight=4;overflow=hidden;points=[[0,0.5],[1,0.5]];portConstraint=eastwest;rotatable=0;whiteSpace=wrap;html=1;" vertex="1" parent="DdxbloYHh6gc6Rri6B6Y-3">
          <mxGeometry y="30" width="140" height="30" as="geometry" />
        </mxCell>
        <mxCell id="DdxbloYHh6gc6Rri6B6Y-5" value="text" style="text;strokeColor=none;fillColor=none;align=left;verticalAlign=middle;spacingLeft=4;spacingRight=4;overflow=hidden;points=[[0,0.5],[1,0.5]];portConstraint=eastwest;rotatable=0;whiteSpace=wrap;html=1;" vertex="1" parent="DdxbloYHh6gc6Rri6B6Y-3">
          <mxGeometry y="60" width="140" height="30" as="geometry" />
        </mxCell>
        <mxCell id="DdxbloYHh6gc6Rri6B6Y-6" value="status" style="text;strokeColor=none;fillColor=none;align=left;verticalAlign=middle;spacingLeft=4;spacingRight=4;overflow=hidden;points=[[0,0.5],[1,0.5]];portConstraint=eastwest;rotatable=0;whiteSpace=wrap;html=1;" vertex="1" parent="DdxbloYHh6gc6Rri6B6Y-3">
          <mxGeometry y="90" width="140" height="30" as="geometry" />
        </mxCell>
        <mxCell id="DdxbloYHh6gc6Rri6B6Y-7" value="1 : N" style="text;html=1;align=center;verticalAlign=middle;resizable=0;points=[];autosize=1;strokeColor=none;fillColor=none;" vertex="1" parent="DdxbloYHh6gc6Rri6B6Y-2">
          <mxGeometry x="180" y="100" width="50" height="30" as="geometry" />
        </mxCell>
        <mxCell id="DdxbloYHh6gc6Rri6B6Y-8" value="Quiz" style="swimlane;fontStyle=0;childLayout=stackLayout;horizontal=1;startSize=30;horizontalStack=0;resizeParent=1;resizeParentMax=0;resizeLast=0;collapsible=1;marginBottom=0;whiteSpace=wrap;html=1;" vertex="1" parent="DdxbloYHh6gc6Rri6B6Y-2">
          <mxGeometry x="30" y="60" width="140" height="150" as="geometry" />
        </mxCell>
        <mxCell id="DdxbloYHh6gc6Rri6B6Y-9" value="id" style="text;strokeColor=none;fillColor=none;align=left;verticalAlign=middle;spacingLeft=4;spacingRight=4;overflow=hidden;points=[[0,0.5],[1,0.5]];portConstraint=eastwest;rotatable=0;whiteSpace=wrap;html=1;" vertex="1" parent="DdxbloYHh6gc6Rri6B6Y-8">
          <mxGeometry y="30" width="140" height="30" as="geometry" />
        </mxCell>
        <mxCell id="DdxbloYHh6gc6Rri6B6Y-10" value="topic_id" style="text;strokeColor=none;fillColor=none;align=left;verticalAlign=middle;spacingLeft=4;spacingRight=4;overflow=hidden;points=[[0,0.5],[1,0.5]];portConstraint=eastwest;rotatable=0;whiteSpace=wrap;html=1;" vertex="1" parent="DdxbloYHh6gc6Rri6B6Y-8">
          <mxGeometry y="60" width="140" height="30" as="geometry" />
        </mxCell>
        <mxCell id="DdxbloYHh6gc6Rri6B6Y-11" value="question" style="text;strokeColor=none;fillColor=none;align=left;verticalAlign=middle;spacingLeft=4;spacingRight=4;overflow=hidden;points=[[0,0.5],[1,0.5]];portConstraint=eastwest;rotatable=0;whiteSpace=wrap;html=1;" vertex="1" parent="DdxbloYHh6gc6Rri6B6Y-8">
          <mxGeometry y="90" width="140" height="30" as="geometry" />
        </mxCell>
        <mxCell id="DdxbloYHh6gc6Rri6B6Y-12" value="responses" style="text;strokeColor=none;fillColor=none;align=left;verticalAlign=middle;spacingLeft=4;spacingRight=4;overflow=hidden;points=[[0,0.5],[1,0.5]];portConstraint=eastwest;rotatable=0;whiteSpace=wrap;html=1;" vertex="1" parent="DdxbloYHh6gc6Rri6B6Y-8">
          <mxGeometry y="120" width="140" height="30" as="geometry" />
        </mxCell>
        <mxCell id="DdxbloYHh6gc6Rri6B6Y-13" style="edgeStyle=orthogonalEdgeStyle;rounded=0;orthogonalLoop=1;jettySize=auto;html=1;entryX=1;entryY=0.5;entryDx=0;entryDy=0;" edge="1" parent="DdxbloYHh6gc6Rri6B6Y-2" source="DdxbloYHh6gc6Rri6B6Y-4" target="DdxbloYHh6gc6Rri6B6Y-12">
          <mxGeometry relative="1" as="geometry" />
        </mxCell>
        <mxCell id="DdxbloYHh6gc6Rri6B6Y-14" value="Topic" style="swimlane;fontStyle=0;childLayout=stackLayout;horizontal=1;startSize=30;horizontalStack=0;resizeParent=1;resizeParentMax=0;resizeLast=0;collapsible=1;marginBottom=0;whiteSpace=wrap;html=1;" vertex="1" parent="DdxbloYHh6gc6Rri6B6Y-1">
          <mxGeometry x="755" y="460" width="140" height="120" as="geometry" />
        </mxCell>
        <mxCell id="DdxbloYHh6gc6Rri6B6Y-15" value="id" style="text;strokeColor=none;fillColor=none;align=left;verticalAlign=middle;spacingLeft=4;spacingRight=4;overflow=hidden;points=[[0,0.5],[1,0.5]];portConstraint=eastwest;rotatable=0;whiteSpace=wrap;html=1;" vertex="1" parent="DdxbloYHh6gc6Rri6B6Y-14">
          <mxGeometry y="30" width="140" height="30" as="geometry" />
        </mxCell>
        <mxCell id="DdxbloYHh6gc6Rri6B6Y-16" value="name" style="text;strokeColor=none;fillColor=none;align=left;verticalAlign=middle;spacingLeft=4;spacingRight=4;overflow=hidden;points=[[0,0.5],[1,0.5]];portConstraint=eastwest;rotatable=0;whiteSpace=wrap;html=1;" vertex="1" parent="DdxbloYHh6gc6Rri6B6Y-14">
          <mxGeometry y="60" width="140" height="30" as="geometry" />
        </mxCell>
        <mxCell id="DdxbloYHh6gc6Rri6B6Y-17" value="description" style="text;strokeColor=none;fillColor=none;align=left;verticalAlign=middle;spacingLeft=4;spacingRight=4;overflow=hidden;points=[[0,0.5],[1,0.5]];portConstraint=eastwest;rotatable=0;whiteSpace=wrap;html=1;" vertex="1" parent="DdxbloYHh6gc6Rri6B6Y-14">
          <mxGeometry y="90" width="140" height="30" as="geometry" />
        </mxCell>
        <mxCell id="DdxbloYHh6gc6Rri6B6Y-18" value="Topic Collection" style="swimlane;fillColor=#d5e8d4;strokeColor=#82b366;" vertex="1" parent="DdxbloYHh6gc6Rri6B6Y-1">
          <mxGeometry x="740" y="415" width="170" height="190" as="geometry" />
        </mxCell>
        <mxCell id="DdxbloYHh6gc6Rri6B6Y-19" value="UserRoom" style="swimlane;fontStyle=0;childLayout=stackLayout;horizontal=1;startSize=30;horizontalStack=0;resizeParent=1;resizeParentMax=0;resizeLast=0;collapsible=1;marginBottom=0;whiteSpace=wrap;html=1;strokeWidth=1;" vertex="1" parent="DdxbloYHh6gc6Rri6B6Y-1">
          <mxGeometry x="340" y="90" width="140" height="180" as="geometry" />
        </mxCell>
        <mxCell id="DdxbloYHh6gc6Rri6B6Y-20" value="id" style="text;strokeColor=none;fillColor=none;align=left;verticalAlign=middle;spacingLeft=4;spacingRight=4;overflow=hidden;points=[[0,0.5],[1,0.5]];portConstraint=eastwest;rotatable=0;whiteSpace=wrap;html=1;" vertex="1" parent="DdxbloYHh6gc6Rri6B6Y-19">
          <mxGeometry y="30" width="140" height="30" as="geometry" />
        </mxCell>
        <mxCell id="DdxbloYHh6gc6Rri6B6Y-21" value="name" style="text;strokeColor=none;fillColor=none;align=left;verticalAlign=middle;spacingLeft=4;spacingRight=4;overflow=hidden;points=[[0,0.5],[1,0.5]];portConstraint=eastwest;rotatable=0;whiteSpace=wrap;html=1;" vertex="1" parent="DdxbloYHh6gc6Rri6B6Y-19">
          <mxGeometry y="60" width="140" height="30" as="geometry" />
        </mxCell>
        <mxCell id="DdxbloYHh6gc6Rri6B6Y-22" value="score" style="text;strokeColor=none;fillColor=none;align=left;verticalAlign=middle;spacingLeft=4;spacingRight=4;overflow=hidden;points=[[0,0.5],[1,0.5]];portConstraint=eastwest;rotatable=0;whiteSpace=wrap;html=1;" vertex="1" parent="DdxbloYHh6gc6Rri6B6Y-19">
          <mxGeometry y="90" width="140" height="30" as="geometry" />
        </mxCell>
        <mxCell id="DdxbloYHh6gc6Rri6B6Y-23" value="status" style="text;strokeColor=none;fillColor=none;align=left;verticalAlign=middle;spacingLeft=4;spacingRight=4;overflow=hidden;points=[[0,0.5],[1,0.5]];portConstraint=eastwest;rotatable=0;whiteSpace=wrap;html=1;" vertex="1" parent="DdxbloYHh6gc6Rri6B6Y-19">
          <mxGeometry y="120" width="140" height="30" as="geometry" />
        </mxCell>
        <mxCell id="DdxbloYHh6gc6Rri6B6Y-24" value="role" style="text;strokeColor=none;fillColor=none;align=left;verticalAlign=middle;spacingLeft=4;spacingRight=4;overflow=hidden;points=[[0,0.5],[1,0.5]];portConstraint=eastwest;rotatable=0;whiteSpace=wrap;html=1;" vertex="1" parent="DdxbloYHh6gc6Rri6B6Y-19">
          <mxGeometry y="150" width="140" height="30" as="geometry" />
        </mxCell>
        <mxCell id="DdxbloYHh6gc6Rri6B6Y-25" value="Room" style="swimlane;fontStyle=0;childLayout=stackLayout;horizontal=1;startSize=30;horizontalStack=0;resizeParent=1;resizeParentMax=0;resizeLast=0;collapsible=1;marginBottom=0;whiteSpace=wrap;html=1;" vertex="1" parent="DdxbloYHh6gc6Rri6B6Y-1">
          <mxGeometry x="70" y="90" width="140" height="150" as="geometry" />
        </mxCell>
        <mxCell id="DdxbloYHh6gc6Rri6B6Y-26" value="id" style="text;strokeColor=none;fillColor=none;align=left;verticalAlign=middle;spacingLeft=4;spacingRight=4;overflow=hidden;points=[[0,0.5],[1,0.5]];portConstraint=eastwest;rotatable=0;whiteSpace=wrap;html=1;" vertex="1" parent="DdxbloYHh6gc6Rri6B6Y-25">
          <mxGeometry y="30" width="140" height="30" as="geometry" />
        </mxCell>
        <mxCell id="DdxbloYHh6gc6Rri6B6Y-27" value="status" style="text;strokeColor=none;fillColor=none;align=left;verticalAlign=middle;spacingLeft=4;spacingRight=4;overflow=hidden;points=[[0,0.5],[1,0.5]];portConstraint=eastwest;rotatable=0;whiteSpace=wrap;html=1;" vertex="1" parent="DdxbloYHh6gc6Rri6B6Y-25">
          <mxGeometry y="60" width="140" height="30" as="geometry" />
        </mxCell>
        <mxCell id="DdxbloYHh6gc6Rri6B6Y-28" value="users" style="text;strokeColor=none;fillColor=none;align=left;verticalAlign=middle;spacingLeft=4;spacingRight=4;overflow=hidden;points=[[0,0.5],[1,0.5]];portConstraint=eastwest;rotatable=0;whiteSpace=wrap;html=1;" vertex="1" parent="DdxbloYHh6gc6Rri6B6Y-25">
          <mxGeometry y="90" width="140" height="30" as="geometry" />
        </mxCell>
        <mxCell id="DdxbloYHh6gc6Rri6B6Y-29" value="quizzes" style="text;strokeColor=none;fillColor=none;align=left;verticalAlign=middle;spacingLeft=4;spacingRight=4;overflow=hidden;points=[[0,0.5],[1,0.5]];portConstraint=eastwest;rotatable=0;whiteSpace=wrap;html=1;" vertex="1" parent="DdxbloYHh6gc6Rri6B6Y-25">
          <mxGeometry y="120" width="140" height="30" as="geometry" />
        </mxCell>
        <mxCell id="DdxbloYHh6gc6Rri6B6Y-30" value="1 : N" style="text;html=1;align=center;verticalAlign=middle;resizable=0;points=[];autosize=1;strokeColor=none;fillColor=none;" vertex="1" parent="DdxbloYHh6gc6Rri6B6Y-1">
          <mxGeometry x="250" y="100" width="50" height="30" as="geometry" />
        </mxCell>
        <mxCell id="DdxbloYHh6gc6Rri6B6Y-31" value="Room Collection" style="swimlane;fillColor=#d5e8d4;strokeColor=#82b366;" vertex="1" parent="DdxbloYHh6gc6Rri6B6Y-1">
          <mxGeometry x="50" y="50" width="470" height="400" as="geometry" />
        </mxCell>
        <mxCell id="DdxbloYHh6gc6Rri6B6Y-32" value="1 : N" style="text;html=1;align=center;verticalAlign=middle;resizable=0;points=[];autosize=1;strokeColor=none;fillColor=none;" vertex="1" parent="DdxbloYHh6gc6Rri6B6Y-31">
          <mxGeometry x="220" y="270" width="50" height="30" as="geometry" />
        </mxCell>
        <mxCell id="DdxbloYHh6gc6Rri6B6Y-33" value="QuizRoom" style="swimlane;fontStyle=0;childLayout=stackLayout;horizontal=1;startSize=30;horizontalStack=0;resizeParent=1;resizeParentMax=0;resizeLast=0;collapsible=1;marginBottom=0;whiteSpace=wrap;html=1;" vertex="1" parent="DdxbloYHh6gc6Rri6B6Y-1">
          <mxGeometry x="330" y="310" width="150" height="120" as="geometry" />
        </mxCell>
        <mxCell id="DdxbloYHh6gc6Rri6B6Y-34" value="id" style="text;strokeColor=none;fillColor=none;align=left;verticalAlign=middle;spacingLeft=4;spacingRight=4;overflow=hidden;points=[[0,0.5],[1,0.5]];portConstraint=eastwest;rotatable=0;whiteSpace=wrap;html=1;" vertex="1" parent="DdxbloYHh6gc6Rri6B6Y-33">
          <mxGeometry y="30" width="150" height="30" as="geometry" />
        </mxCell>
        <mxCell id="DdxbloYHh6gc6Rri6B6Y-35" value="quiz_id" style="text;strokeColor=none;fillColor=none;align=left;verticalAlign=middle;spacingLeft=4;spacingRight=4;overflow=hidden;points=[[0,0.5],[1,0.5]];portConstraint=eastwest;rotatable=0;whiteSpace=wrap;html=1;" vertex="1" parent="DdxbloYHh6gc6Rri6B6Y-33">
          <mxGeometry y="60" width="150" height="30" as="geometry" />
        </mxCell>
        <mxCell id="DdxbloYHh6gc6Rri6B6Y-36" value="status" style="text;strokeColor=none;fillColor=none;align=left;verticalAlign=middle;spacingLeft=4;spacingRight=4;overflow=hidden;points=[[0,0.5],[1,0.5]];portConstraint=eastwest;rotatable=0;whiteSpace=wrap;html=1;" vertex="1" parent="DdxbloYHh6gc6Rri6B6Y-33">
          <mxGeometry y="90" width="150" height="30" as="geometry" />
        </mxCell>
        <mxCell id="DdxbloYHh6gc6Rri6B6Y-37" style="edgeStyle=orthogonalEdgeStyle;rounded=0;orthogonalLoop=1;jettySize=auto;html=1;" edge="1" parent="DdxbloYHh6gc6Rri6B6Y-1" source="DdxbloYHh6gc6Rri6B6Y-20" target="DdxbloYHh6gc6Rri6B6Y-28">
          <mxGeometry relative="1" as="geometry" />
        </mxCell>
        <mxCell id="DdxbloYHh6gc6Rri6B6Y-38" style="edgeStyle=orthogonalEdgeStyle;rounded=0;orthogonalLoop=1;jettySize=auto;html=1;" edge="1" parent="DdxbloYHh6gc6Rri6B6Y-1" source="DdxbloYHh6gc6Rri6B6Y-34" target="DdxbloYHh6gc6Rri6B6Y-29">
          <mxGeometry relative="1" as="geometry" />
        </mxCell>
        <mxCell id="DdxbloYHh6gc6Rri6B6Y-39" style="edgeStyle=orthogonalEdgeStyle;rounded=0;orthogonalLoop=1;jettySize=auto;html=1;" edge="1" parent="DdxbloYHh6gc6Rri6B6Y-1" source="DdxbloYHh6gc6Rri6B6Y-10" target="DdxbloYHh6gc6Rri6B6Y-15">
          <mxGeometry relative="1" as="geometry">
            <Array as="points">
              <mxPoint x="620" y="275" />
              <mxPoint x="620" y="500" />
            </Array>
          </mxGeometry>
        </mxCell>
        <mxCell id="DdxbloYHh6gc6Rri6B6Y-40" style="edgeStyle=orthogonalEdgeStyle;rounded=0;orthogonalLoop=1;jettySize=auto;html=1;" edge="1" parent="DdxbloYHh6gc6Rri6B6Y-1" source="DdxbloYHh6gc6Rri6B6Y-35" target="DdxbloYHh6gc6Rri6B6Y-9">
          <mxGeometry relative="1" as="geometry">
            <Array as="points">
              <mxPoint x="270" y="385" />
              <mxPoint x="270" y="480" />
              <mxPoint x="580" y="480" />
              <mxPoint x="580" y="245" />
            </Array>
          </mxGeometry>
        </mxCell>
        <mxCell id="DdxbloYHh6gc6Rri6B6Y-41" value="1 : 1" style="text;html=1;align=center;verticalAlign=middle;resizable=0;points=[];autosize=1;strokeColor=none;fillColor=none;" vertex="1" parent="DdxbloYHh6gc6Rri6B6Y-1">
          <mxGeometry x="580" y="210" width="50" height="30" as="geometry" />
        </mxCell>
        <mxCell id="DdxbloYHh6gc6Rri6B6Y-42" value="N : 1" style="text;html=1;align=center;verticalAlign=middle;resizable=0;points=[];autosize=1;strokeColor=none;fillColor=none;" vertex="1" parent="DdxbloYHh6gc6Rri6B6Y-1">
          <mxGeometry x="660" y="460" width="50" height="30" as="geometry" />
        </mxCell>
      </root>
    </mxGraphModel>
  </diagram>
</mxfile>
